<svg xmlns="http://www.w3.org/2000/svg" viewBox="0 0 600.13 352.75"><defs><style>.cls-1{fill:red;}</style></defs><title>mc-text-black-red</title><g id="Layer_15" data-name="Layer 15"><path d="M115.89,230.43l7.54,59.87H97.82L79.41,158.61h29.76l22.14,57.8,8.6-57.8h30L182.28,290.3H156.67l-6.47-59.87-11.28,51Z" transform="translate(0.13 -96.02)"/><path d="M222.36,270.1,221.11,286H194.59l14-127.39H238.7L270.33,286H243.81l-3.32-15.9Zm1.52-19.21h12.4l-9.21-44.46Z" transform="translate(0.13 -96.02)"/><path d="M350.22,238.88a11.74,11.74,0,0,1-3.05,7.85q-3,3.56-9,3.55l14.2,40H325.14l-13.67-40H308l.72,22.77h-26.5l-4.79-114.44h53.5q9.92,0,14.52,4.95T350,176.74Zm-44-55.86,1.2,46.32h13.32c1.75,0,2.61-.9,2.58-2.71l-.71-40.77c0-1.89-1-2.84-2.74-2.84Z" transform="translate(0.13 -96.02)"/><path d="M393.94,217.33l15.54-58.72h29.18l-19,62.92L433,290.3H404.15l-9.31-52.13h-5.41l-.9,52.13H361.65L362,158.61H390.8l-1,58.72Z" transform="translate(0.13 -96.02)"/><path d="M446.44,158.61H506.7l-2.48,25.93H473.88L472,216.6h22.66L493,239.24H470.6l-1.67,27.88h27.95L496,290.3H440.47Z" transform="translate(0.13 -96.02)"/><path d="M574.76,271.11c-.81,6.9-2.9,11.81-6.28,14.77s-8.86,4.42-16.49,4.42H505.32L515.9,158.61h55.25q8.37,0,12,4.66t2.73,12.32ZM541.61,183l-8.08,85.49H546a2.85,2.85,0,0,0,2.18-.61,3.65,3.65,0,0,0,.67-2l8.22-80.23c.19-1.77-.56-2.65-2.22-2.65Z" transform="translate(0.13 -96.02)"/><polygon class="cls-1" points="41.34 199.95 3.17 231.66 3.17 137.1 16.43 119.93 41.34 199.95"/><polygon points="8.1 47.29 44.92 0 74.58 175.72 53.11 191.58 8.1 47.29"/></g><g id="Layer_16" data-name="Layer 16"><polygon points="0 315.98 0.37 257.7 82.5 188.96 563.13 188.53 536.83 194.28 91.45 209.08 0 315.98"/><path class="cls-1" d="M47.19,448.23c-14.22,1.33-22.79.19-25.5-3.41s-.56-9.92,6.13-18.83l68.41-91a27.74,27.74,0,0,1,12.62-9,48.28,48.28,0,0,1,16.54-3.26l43.66-.86L165,339.2l-33.15,1c-2.11.07-3.6.75-4.45,2.07l-47,72.29c-1.24,1.9-.54,2.76,2.11,2.56l41.3-3.16L99.88,443.31Z" transform="translate(0.13 -96.02)"/><path class="cls-1" d="M157.31,437.94c-12.41,1.16-20.26.08-23.37-3.24s-2.42-9.1,1.82-17.27l49.79-95.91,31.56-.62-37.32,87.31a2.81,2.81,0,0,0-.29,2.22c.23.48,1.16.65,2.78.53l13.64-1.06a5.87,5.87,0,0,0,3.32-1,5.45,5.45,0,0,0,1.51-2.28l32.68-86.05,29.64-.58-26.2,89.41c-2.2,7.5-6,13.23-11.43,17s-14.08,6.42-25.64,7.5Z" transform="translate(0.13 -96.02)"/><path class="cls-1" d="M274.75,319.78l28.22-.56-14.44,82.13,33.25-2.55-2.86,24.53-72.59,6.28Z" transform="translate(0.13 -96.02)"/><path class="cls-1" d="M381,317.8l1.44,14.73-17,.52.72,85.36-33.39,3.12,5.91-87.66-20.82.56,3.29-15.72Z" transform="translate(0.13 -96.02)"/><path class="cls-1" d="M419,413.46c-8.6.81-14.82-.12-18.54-2.77s-5.78-7.26-6.28-13.76l-6.05-79.37,23.85-.47,10.72,72.75a3.2,3.2,0,0,0,.75,1.8,3,3,0,0,0,2.29.44l9.68-.75c1.13-.09,1.82-.35,2.06-.77a2.86,2.86,0,0,0,.13-1.85l-13.24-71.86,22.59-.44,18.85,74.83c1.52,6.07,1.1,10.66-1.34,13.68s-7.75,5-15.85,5.77Z" transform="translate(0.13 -96.02)"/><path class="cls-1" d="M529.08,361.54a6.13,6.13,0,0,1-.15,5.64c-1,1.8-3.15,2.82-6.49,3l25.95,31.15-25.29,2.36-23.77-32-3.12.2,11.37,33.24-26.18,2.45-25.46-91.4,39.4-.77c4.71-.09,8.46.65,11.3,2.24a13.8,13.8,0,0,1,6.16,6.64Zm-47.67-32.89,9.7,28.37,11.17-.6q2.18-.12,1.5-1.92l-9.33-24.66a2.4,2.4,0,0,0-2.62-1.5Z" transform="translate(0.13 -96.02)"/><path class="cls-1" d="M517.16,315l42-.71L564.34,327l-20.78.64,9.41,18,16.53-.76,8,14.08-17.06,1,10.33,19.8L590.51,378,600,396.54l-43.25,4Z" transform="translate(0.13 -96.02)"/></g></svg>